<!DOCTYPE svg PUBLIC "-//W3C//DTD SVG 1.1//EN" "http://www.w3.org/Graphics/SVG/1.1/DTD/svg11.dtd">
<!-- Uploaded to: SVG Repo, www.svgrepo.com, Transformed by: SVG Repo Mixer Tools -->
<svg version="1.1" id="Uploaded to svgrepo.com" xmlns="http://www.w3.org/2000/svg" xmlns:xlink="http://www.w3.org/1999/xlink" width="800px" height="800px" viewBox="0 0 32 32" xml:space="preserve" fill="#000000">
<g id="SVGRepo_bgCarrier" stroke-width="0"/>
<g id="SVGRepo_tracerCarrier" stroke-linecap="round" stroke-linejoin="round"/>
<g id="SVGRepo_iconCarrier"> <style type="text/css"> .stone_een{fill:#4a5565;} .st0{fill:#4a5565;} </style> <path class="stone_een" d="M22,9.5C22,8.673,22.673,8,23.5,8S25,8.673,25,9.5S24.327,11,23.5,11S22,10.327,22,9.5z M23,19h1v-1h-1 V19z M23,21h1v-1h-1V21z M16.5,11c0.827,0,1.5-0.673,1.5-1.5S17.327,8,16.5,8S15,8.673,15,9.5S15.673,11,16.5,11z M29,24H3 c-1.105,0-2,0.895-2,2v1c0,0.552,0.448,1,1,1h28c0.552,0,1-0.448,1-1v-1C31,24.895,30.105,24,29,24z M7.5,20 C7.776,20,8,19.776,8,19.5V18h2c0.552,0,1-0.448,1-1H4c0,0.552,0.448,1,1,1h2v1.5C7,19.776,7.224,20,7.5,20z M3,15V7 c0-1.657,1.343-3,3-3h20c1.657,0,3,1.343,3,3v16H18v-8h-6c0,0.552-0.448,1-1,1H4C3.448,16,3,15.552,3,15z M25,18 c0-0.552-0.448-1-1-1h-1c-0.552,0-1,0.448-1,1v3c0,0.552,0.448,1,1,1h1c0.552,0,1-0.448,1-1V18z M21,9.5c0,1.381,1.119,2.5,2.5,2.5 c1.381,0,2.5-1.119,2.5-2.5C26,8.119,24.881,7,23.5,7C22.119,7,21,8.119,21,9.5z M14,9.5c0,1.381,1.119,2.5,2.5,2.5 c1.381,0,2.5-1.119,2.5-2.5C19,8.119,17.881,7,16.5,7C15.119,7,14,8.119,14,9.5z"/> </g>
</svg>