<?xml version="1.0" encoding="UTF-8"?><svg id="Layer_1" xmlns="http://www.w3.org/2000/svg" viewBox="0 0 146.383 155.351"><defs><style>.cls-1{fill:#ac2021;}.cls-2{fill:#162b69;}.cls-3{fill:#ddaf29;}</style></defs><g id="Wing_1"><path class="cls-3" d="M133.203,1.148c-1.464-2.395-17.379-1.121-29.602,4.561-11.451,5.323-17.392,13.459-20.411,19.159,1.747,2.466,3.811,3.835,5.245,4.594,2.836,1.502,5.943,2.02,12.156,3.055,2.03.338,4.058.604,4.508.663,1.718.223,3.643.441,5.748.626,1.129-.143,2.707-.411,4.494-.945,1.877-.562,4.764-1.425,6.914-3.438,1.622-1.519,2.119-3.03,2.535-4.297.844-2.569.12-3.32.461-7.994.171-2.352.257-3.529.691-4.693.768-2.06,1.745-2.822,4.264-6.307,2.181-3.018,3.279-4.523,2.997-4.985ZM123.082,7.903c-2.058,2.992-2.856,3.647-3.483,5.416-.355,1-.425,2.01-.565,4.03-.278,4.013.313,4.658-.377,6.864-.34,1.088-.746,2.386-2.071,3.69-1.756,1.728-4.114,2.47-5.648,2.952-1.46.459-2.749.689-3.671.812-3.44-.319-6.289-.746-8.378-1.107-3.153-.545-6.785-1.32-10.637-2.952-3.755-1.591-4.143-2.48-4.048-2.976.054-.283.277-.497.471-.641,2.286-3.375,6.558-8.621,14.026-13.063,11.115-6.61,25.491-9.169,26.83-7.306.253.352-.647,1.661-2.448,4.28Z"/><path class="cls-1" d="M84.774,24.44c2.286-3.177,6.558-8.116,14.026-12.297,11.115-6.223,25.491-8.632,26.83-6.878.253.331-.647,1.564-2.448,4.03-2.058,2.817-2.856,3.433-3.483,5.098-.355.941-.425,1.892-.565,3.794-.278,3.778.313,4.385-.377,6.462-.34,1.024-.746,2.246-2.071,3.474-1.756,1.627-4.114,2.325-5.648,2.779-1.46.432-2.749.648-3.671.764-3.44-.3-6.289-.702-8.378-1.042-3.153-.513-6.785-1.243-10.637-2.779-3.755-1.498-4.143-2.335-4.048-2.801.054-.266.277-.468.471-.603Z"/><path class="cls-3" d="M109.127,42.843c-.453-2.921-2.119-5.025-3.109-6.089-1.807-1.116-4.244-2.409-7.326-3.539-2.649-.971-5.095-1.571-7.117-1.952-.421-.002-1.003.006-1.697.051-.667.044-.819.07-.884.157-.1.134-.048.473,1.298,1.467.4.38.895.962,1.111,1.736.185.662.076,1.11.041,1.857-.03.642-.006,1.559.255,2.691.175,1.052.588,2.502,1.64,4.021,3.252,4.693,10.465,6.706,14.261,6.116,2.806-.437,1.77-4.948,1.527-6.517ZM105.72,47.844c-3.179.384-9.083-1.418-11.579-5.286-.808-1.252-1.087-2.433-1.187-3.286-.167-.92-.147-1.661-.094-2.179.062-.602.172-.961.047-1.5-.146-.63-.532-1.112-.847-1.429-1.074-.836-1.103-1.11-1.014-1.216.058-.069.186-.086.741-.105.579-.02,1.063-.012,1.412,0,1.663.357,3.669.902,5.826,1.75,2.511.987,4.478,2.091,5.931,3.036.776.883,2.068,2.623,2.316,4.992.134,1.273.797,4.94-1.553,5.224Z"/><path class="cls-1" d="M92.503,32.165c1.663.357,3.669.902,5.826,1.75,2.511.987,4.478,2.091,5.931,3.036.776.883,2.068,2.623,2.316,4.992.134,1.273.797,4.94-1.553,5.224-3.179.384-9.083-1.418-11.579-5.286-.808-1.252-1.087-2.433-1.187-3.286-.167-.92-.147-1.661-.094-2.179.062-.602.172-.961.047-1.5-.146-.63-.532-1.112-.847-1.429-1.074-.836-1.103-1.11-1.014-1.216.058-.069.186-.086.741-.105.579-.02,1.063-.012,1.412,0Z"/></g><g id="Wing_2"><path class="cls-3" d="M40.029,5.709C27.806.027,11.892-1.247,10.427,1.148c-.282.462.816,1.967,2.997,4.985,2.519,3.485,3.496,4.247,4.264,6.307.434,1.165.52,2.341.691,4.693.341,4.674-.383,5.424.461,7.994.416,1.267.913,2.779,2.535,4.297,2.15,2.012,5.037,2.876,6.914,3.438,1.788.535,3.365.802,4.494.945,2.105-.186,4.03-.403,5.748-.626.45-.058,2.479-.325,4.508-.663,6.213-1.035,9.319-1.552,12.156-3.055,1.434-.76,3.498-2.129,5.245-4.594-3.019-5.7-8.96-13.836-20.411-19.159ZM55.379,27.607c-3.852,1.632-7.484,2.407-10.637,2.952-2.089.361-4.939.788-8.378,1.107-.922-.123-2.211-.353-3.671-.812-1.534-.482-3.892-1.224-5.648-2.952-1.325-1.304-1.731-2.602-2.071-3.69-.689-2.206-.098-2.851-.377-6.864-.14-2.02-.21-3.03-.565-4.03-.628-1.769-1.425-2.423-3.483-5.416-1.801-2.619-2.701-3.928-2.448-4.28,1.339-1.862,15.715.696,26.83,7.306,7.468,4.442,11.74,9.688,14.026,13.063.194.143.417.358.471.641.095.496-.293,1.385-4.048,2.976Z"/><path class="cls-1" d="M58.856,24.44c-2.286-3.177-6.558-8.116-14.026-12.297-11.115-6.223-25.491-8.632-26.83-6.878-.253.331.647,1.564,2.448,4.03,2.058,2.817,2.856,3.433,3.483,5.098.355.941.425,1.892.565,3.794.278,3.778-.313,4.385.377,6.462.34,1.024.746,2.246,2.071,3.474,1.756,1.627,4.114,2.325,5.648,2.779,1.46.432,2.749.648,3.671.764,3.44-.3,6.289-.702,8.378-1.042,3.153-.513,6.785-1.243,10.637-2.779,3.755-1.498,4.143-2.335,4.048-2.801-.054-.266-.277-.468-.471-.603Z"/><path class="cls-3" d="M54.636,31.472c-.065-.087-.217-.113-.884-.157-.695-.046-1.277-.054-1.697-.051-2.022.381-4.468.982-7.117,1.952-3.082,1.129-5.519,2.423-7.326,3.539-.99,1.064-2.656,3.168-3.109,6.089-.243,1.569-1.279,6.081,1.527,6.517,3.796.591,11.009-1.423,14.261-6.116,1.052-1.519,1.465-2.969,1.64-4.021.261-1.132.285-2.049.255-2.691-.035-.747-.144-1.195.041-1.857.216-.774.712-1.356,1.111-1.736,1.346-.995,1.398-1.333,1.298-1.467ZM51.57,34.163c-.315.316-.701.798-.847,1.429-.125.539-.015.898.047,1.5.053.518.073,1.259-.094,2.179-.1.853-.379,2.034-1.187,3.286-2.496,3.868-8.4,5.67-11.579,5.286-2.35-.284-1.687-3.951-1.553-5.224.248-2.369,1.541-4.109,2.316-4.992,1.452-.945,3.42-2.049,5.931-3.036,2.158-.848,4.163-1.393,5.826-1.75.349-.012.833-.02,1.412,0,.556.019.683.036.741.105.089.106.061.381-1.014,1.216Z"/><path class="cls-1" d="M51.127,32.165c-1.663.357-3.669.902-5.826,1.75-2.511.987-4.478,2.091-5.931,3.036-.776.883-2.068,2.623-2.316,4.992-.134,1.273-.797,4.94,1.553,5.224,3.179.384,9.083-1.418,11.579-5.286.808-1.252,1.087-2.433,1.187-3.286.167-.92.147-1.661.094-2.179-.062-.602-.172-.961-.047-1.5.146-.63.532-1.112.847-1.429,1.074-.836,1.103-1.11,1.014-1.216-.058-.069-.186-.086-.741-.105-.579-.02-1.063-.012-1.412,0Z"/></g><g id="Botton_Gown"><path id="bottom" class="cls-2" d="M96.585,66.835c-.094,3.883-.659,11.241-2.259,13.312-1.6,2.072-11.108,16.431-11.202,18.288-.094,1.857,0,8.072,0,10.144s-9.696,2.072-9.696,2.072c0,0-1.412,2.073-7.813,3.93-6.401,1.856-13.744,1.358-16.097,0-2.353-1.358-3.954-1.43-3.954-1.43-1.032.521-1.846,1.026-2.443,1.43-1.516,1.024-2.274,1.537-2.845,2.341-.662.932-.65,1.56-1.513,1.893-.511.198-.911.13-1.38.478-.41.304-.362.547-.799.882-.417.32-.85.397-1.162.496-.966.307-1.42,1.029-2.106,2.04-.69,1.016-1.556,1.965-2.154,3.014-6.409,11.25-17.415,17.359-17.415,17.359-6.119,2.5-13.744,5.644-13.744,5.644,0,0,0,2.357,3.765,3.786,3.765,1.429,11.202,2.143,13.273,1.643,2.071-.5,7.507-6.429,10.437-9.215l2.93-2.786s-1.789,5.572-4.895,8.715c-3.107,3.143-3.483,3.445-3.483,3.445,0,0-.753-.159,7.06-.945,7.813-.786,13.65-2.072,19.204-.786,5.554,1.286,9.414,1.731,9.414,1.731,0,0-2.448-2.231-2.542-6.303-.216-9.339,2.912-13.619,3.483-22.003.03-.435.06-1.07.634-1.633,1.442-1.413,4.693-.779,13.711-.337,2.309.113,3.463.162,4.765.183,2.658.044,4.585-.024,7.946.153.431.023.787.044,1.025.059,3.58,19.977,3.703,26.676,2.702,28.077-.088.123-.785,1.061-.407,1.407.623.57,3.42-.549,3.42-.549,0,0,6.213-1.5,13.744.143,7.531,1.643,24.287,2.747,25.699.802,1.412-1.945,1.977-2.945,1.977-2.945,0,0,1.789-.286,2.824.286,1.036.572,8.19,1.214,8.849-.929s.847-2.715.847-2.715c0,0-.188,2.072-9.037-2.643-8.849-4.715-21.087-16.859-21.087-16.859,0,0-12.144-16.716-13.273-26.861-1.13-10.144-3.389-28.147-3.389-28.147l-3.012-6.669Z"/><polygon class="cls-3" points="110.533 139.227 105.905 132.527 112.785 135.692 110.533 139.227"/><polygon class="cls-3" points="108.798 138.483 110.264 130.474 112.891 137.576 108.798 138.483"/><polygon class="cls-3" points="108.099 136.731 114.798 132.104 111.634 138.983 108.099 136.731"/><polygon class="cls-3" points="108.843 134.997 116.852 136.462 109.75 139.089 108.843 134.997"/><polygon class="cls-3" points="110.595 134.297 115.222 140.996 108.342 137.832 110.595 134.297"/><polygon class="cls-3" points="112.329 135.041 110.863 143.05 108.236 135.948 112.329 135.041"/><polygon class="cls-3" points="113.03 136.793 106.33 141.42 109.494 134.541 113.03 136.793"/><polygon class="cls-3" points="112.285 138.527 104.276 137.062 111.378 134.434 112.285 138.527"/><polygon class="cls-3" points="40.243 139.227 35.616 132.528 42.496 135.692 40.243 139.227"/><polygon class="cls-3" points="38.509 138.483 39.974 130.474 42.601 137.576 38.509 138.483"/><polygon class="cls-3" points="37.809 136.731 44.508 132.104 41.344 138.983 37.809 136.731"/><polygon class="cls-3" points="38.553 134.997 46.563 136.462 39.46 139.089 38.553 134.997"/><polygon class="cls-3" points="40.304 134.297 44.932 140.996 38.052 137.832 40.304 134.297"/><polygon class="cls-3" points="42.039 135.041 40.574 143.05 37.946 135.948 42.039 135.041"/><polygon class="cls-3" points="42.74 136.794 36.04 141.421 39.205 134.541 42.74 136.794"/><polygon class="cls-3" points="41.995 138.528 33.986 137.063 41.088 134.436 41.995 138.528"/><polygon class="cls-3" points="80.413 134.696 77.887 131.04 81.642 132.767 80.413 134.696"/><polygon class="cls-3" points="79.466 134.29 80.266 129.919 81.699 133.795 79.466 134.29"/><polygon class="cls-3" points="79.084 133.334 82.74 130.809 81.014 134.563 79.084 133.334"/><polygon class="cls-3" points="79.49 132.387 83.861 133.187 79.985 134.621 79.49 132.387"/><polygon class="cls-3" points="80.447 132.005 82.972 135.661 79.218 133.935 80.447 132.005"/><polygon class="cls-3" points="81.394 132.411 80.594 136.782 79.161 132.906 81.394 132.411"/><polygon class="cls-3" points="81.775 133.368 78.119 135.893 79.846 132.139 81.775 133.368"/><polygon class="cls-3" points="81.369 134.315 76.998 133.515 80.874 132.082 81.369 134.315"/><polygon class="cls-3" points="48.497 124.765 46.477 121.84 49.481 123.222 48.497 124.765"/><polygon class="cls-3" points="47.74 124.44 48.38 120.943 49.527 124.044 47.74 124.44"/><polygon class="cls-3" points="47.435 123.675 50.36 121.654 48.979 124.659 47.435 123.675"/><polygon class="cls-3" points="47.759 122.918 51.257 123.558 48.155 124.705 47.759 122.918"/><polygon class="cls-3" points="48.525 122.613 50.546 125.538 47.541 124.156 48.525 122.613"/><polygon class="cls-3" points="49.283 122.937 48.643 126.435 47.496 123.333 49.283 122.937"/><polygon class="cls-3" points="49.588 123.702 46.662 125.722 48.044 122.718 49.588 123.702"/><polygon class="cls-3" points="49.263 124.46 45.765 123.82 48.866 122.672 49.263 124.46"/><polygon class="cls-3" points="94.771 116.252 91.637 111.714 96.296 113.857 94.771 116.252"/><polygon class="cls-3" points="93.596 115.747 94.589 110.322 96.368 115.133 93.596 115.747"/><polygon class="cls-3" points="93.122 114.56 97.66 111.426 95.517 116.086 93.122 114.56"/><polygon class="cls-3" points="93.626 113.385 99.051 114.378 94.24 116.157 93.626 113.385"/><polygon class="cls-3" points="94.813 112.912 97.947 117.45 93.287 115.306 94.813 112.912"/><polygon class="cls-3" points="95.988 113.416 94.995 118.841 93.216 114.03 95.988 113.416"/><polygon class="cls-3" points="96.462 114.603 91.924 117.737 94.067 113.077 96.462 114.603"/><polygon class="cls-3" points="95.958 115.778 90.533 114.786 95.343 113.006 95.958 115.778"/><polygon class="cls-3" points="118.606 149.087 116.687 146.309 119.54 147.621 118.606 149.087"/><polygon class="cls-3" points="117.887 148.779 118.494 145.458 119.583 148.402 117.887 148.779"/><polygon class="cls-3" points="117.597 148.052 120.374 146.133 119.062 148.986 117.597 148.052"/><polygon class="cls-3" points="117.905 147.333 121.225 147.94 118.281 149.03 117.905 147.333"/><polygon class="cls-3" points="118.632 147.043 120.55 149.821 117.698 148.509 118.632 147.043"/><polygon class="cls-3" points="119.351 147.351 118.743 150.672 117.654 147.727 119.351 147.351"/><polygon class="cls-3" points="119.64 148.078 116.863 149.997 118.175 147.144 119.64 148.078"/><polygon class="cls-3" points="119.332 148.797 116.012 148.19 118.956 147.1 119.332 148.797"/></g><path id="String" class="cls-3" d="M21.473,154.351c-.008-.015,28.679-1.523,34.708-11.391,3.473-5.685-4.165-9.188,0-12.587,6.919-5.646,30.621,1.597,61.415-4.378,7.125-1.382,19.279-3.74,21.073-8.482,2.263-5.984-13.324-12.191-19.833-14.784-34.479-13.732-76.259-3.671-81.685-11.027-2.946-3.994,6.159-10.676,16.025-13.693,18.905-5.782,36.422,3.169,55.401-1.696,13.605-3.488,25.16-11.546,22.039-16.965-3.452-5.994-24.794-8.737-39.809-7.547-1.074.085-1.72.102-1.72.156.002.254,14.418-1.16,26.169,2.181,2.295.653,11.866,3.374,12.821,7.916,1.391,6.614-16.617,11.727-18.546,12.26-6.68,1.844-12.638,2.178-13.904,2.242-11.833.592-14.725-2.444-27.049-2.242-9.893.162-16.678,2.261-18.171,2.74-7.463,2.398-11.024,5.593-11.805,6.321-2.293,2.139-6.022,5.616-3.831,8.328,1.295,1.603,4.672,2.953,25.977,4.544,20.067,1.499,21.865.659,31.719,2.12,12.653,1.877,20.968,4.934,25.295,6.556,10.569,3.961,18.25,6.839,17.977,10.53-.479,6.493-25.173,10.268-26.209,10.421-5.587.825-10.691.924-20.669,1.091-10.713.178-16.592-1.74-26.121-.242-3.808.598-6.761,1.062-8.587,2.545-3.665,2.974,2.23,5.97.451,10.785-1.395,3.775-6.335,6.008-12.396,8.725-10.647,4.772-20.73,5.584-20.735,5.575Z"/><g id="Top_Gown"><path id="top" class="cls-2" d="M71.732,36.285c-3.284-3.624-6.881-5.253-8.946-5.996-3.317-1.194-4.587-.788-4.987-.63-1.777.703-2.337,2.819-2.683,4.126-.223.843-.223,1.44-.213,1.717.043,1.187.469,2.067.684,2.498,1.67,3.357,3.919,7.787,3.919,7.787.091.362.209.889.3,1.527.142,1,.367,2.582.018,3.902-.184.696-.532,1.336-4.142,4.751-1.233,1.166-2.289,2.129-3.059,2.822-1.12,2.253-2.702,5.608-4.048,9.787-2.071,6.429-4.707,25.932-4.707,25.932,10.683-1.316,17.796-4.453,21.652-6.501.754-.4,5.429-4.077,14.78-11.43,4.42-3.476,7.696-6.109,9.555-10.358,1.204-2.752,1.168-4.851,1.036-6.037-.243-2.176-.43-3.858-2.058-5.257-1.203-1.034-3.456-2.14-3.967-3.315-.024-.055-.276-.643-.588-1.428-.176-.442-.302-.77-.306-.786-.448-1.72.272-3.188,1.177-4.965,1.676-3.293,3.051-3.352,3.671-5.715.546-2.079-.052-3.813-.4-4.822-.657-1.907-1.152-3.512-2.758-4.044-.479-.159-1.811-.473-6.021,1.473-2.055.95-4.931,2.501-7.908,4.965Z"/><polygon class="cls-3" points="67.424 78.788 65.228 75.833 68.416 77.16 67.424 78.788"/><polygon class="cls-3" points="66.633 78.472 67.17 74.829 68.485 78.022 66.633 78.472"/><polygon class="cls-3" points="66.298 77.689 69.253 75.493 67.926 78.681 66.298 77.689"/><polygon class="cls-3" points="66.613 76.898 70.256 77.434 67.063 78.75 66.613 76.898"/><polygon class="cls-3" points="67.397 76.563 69.594 79.518 66.405 78.19 67.397 76.563"/><polygon class="cls-3" points="68.188 76.879 67.651 80.522 66.335 77.329 68.188 76.879"/><polygon class="cls-3" points="68.523 77.662 65.568 79.858 66.895 76.67 68.523 77.662"/><polygon class="cls-3" points="68.207 78.452 64.564 77.916 67.757 76.6 68.207 78.452"/><polygon class="cls-3" points="63.275 38.746 61.676 36.432 64.053 37.525 63.275 38.746"/><polygon class="cls-3" points="62.676 38.489 63.182 35.722 64.089 38.176 62.676 38.489"/><polygon class="cls-3" points="62.434 37.884 64.749 36.286 63.656 38.662 62.434 37.884"/><polygon class="cls-3" points="62.691 37.285 65.458 37.791 63.004 38.699 62.691 37.285"/><polygon class="cls-3" points="63.297 37.043 64.896 39.358 62.519 38.265 63.297 37.043"/><polygon class="cls-3" points="63.896 37.3 63.39 40.067 62.482 37.614 63.896 37.3"/><polygon class="cls-3" points="64.137 37.906 61.822 39.504 62.916 37.128 64.137 37.906"/><polygon class="cls-3" points="63.88 38.505 61.113 37.998 63.567 37.091 63.88 38.505"/><polygon class="cls-3" points="61.204 65.018 57.614 59.819 62.952 62.274 61.204 65.018"/><polygon class="cls-3" points="59.858 64.44 60.996 58.225 63.034 63.736 59.858 64.44"/><polygon class="cls-3" points="59.315 63.08 64.514 59.489 62.059 64.828 59.315 63.08"/><polygon class="cls-3" points="59.893 61.734 66.108 62.871 60.596 64.91 59.893 61.734"/><polygon class="cls-3" points="61.253 61.191 64.844 66.39 59.505 63.935 61.253 61.191"/><polygon class="cls-3" points="62.598 61.769 61.461 67.984 59.423 62.473 62.598 61.769"/><polygon class="cls-3" points="63.141 63.129 57.943 66.72 60.398 61.381 63.141 63.129"/><polygon class="cls-3" points="62.564 64.474 56.349 63.337 61.86 61.299 62.564 64.474"/><g id="Sun"><g id="_3"><polygon class="cls-3" points="81.108 44.863 84.734 41.432 83.448 45.796 81.108 44.863"/></g><g id="_3-2"><polygon class="cls-3" points="83.256 45.739 88.246 45.878 84.251 48.054 83.256 45.739"/></g><g id="_3-3"><polygon class="cls-3" points="84.155 47.878 87.586 51.504 83.221 50.218 84.155 47.878"/></g><g id="_3-4"><polygon class="cls-3" points="83.28 50.026 83.142 55.016 80.966 51.02 83.28 50.026"/></g><g id="_3-5"><polygon class="cls-3" points="81.142 50.926 77.516 54.356 78.802 49.992 81.142 50.926"/></g><g id="_3-6"><polygon class="cls-3" points="78.993 50.049 74.003 49.911 77.999 47.734 78.993 50.049"/></g><g id="_3-7"><polygon class="cls-3" points="78.093 47.91 74.663 44.284 79.027 45.57 78.093 47.91"/></g><g id="_3-8"><polygon class="cls-3" points="78.97 45.762 79.108 40.773 81.285 44.768 78.97 45.762"/></g><ellipse class="cls-3" cx="81.319" cy="47.747" rx="6.946" ry="4.946"/><path class="cls-3" d="M79.925,56.033l1.285,2.109,1.212-1.99v-6.209h-2.594c.032,2.03.065,4.059.097,6.089Z"/><path class="cls-3" d="M74.521,52.801l-.583,2.4,2.264-.55,4.39-4.39-1.834-1.834c-1.412,1.458-2.825,2.916-4.237,4.374Z"/><path class="cls-3" d="M72.986,46.694l-2.109,1.285,1.99,1.212h6.209v-2.594c-2.03.032-4.059.065-6.089.097Z"/><path class="cls-3" d="M76.218,41.291l-2.4-.583.55,2.264,4.39,4.39,1.834-1.834c-1.458-1.412-2.916-2.825-4.374-4.237Z"/><path class="cls-3" d="M82.324,39.756l-1.285-2.109-1.212,1.99v6.209h2.594c-.032-2.03-.065-4.059-.097-6.089Z"/><path class="cls-3" d="M87.728,42.987l.583-2.4-2.264.55-4.39,4.39,1.834,1.834c1.412-1.458,2.825-2.916,4.237-4.374Z"/><path class="cls-3" d="M89.263,49.094l2.109-1.285-1.99-1.212h-6.209v2.594c2.03-.032,4.059-.065,6.089-.097Z"/><path class="cls-3" d="M86.032,54.498l2.4.583-.55-2.264-4.39-4.39-1.834,1.834c1.458,1.412,2.916,2.825,4.374,4.237Z"/></g></g><polygon class="cls-3" points="32.021 83.615 29.644 80.173 33.178 81.799 32.021 83.615"/><polygon class="cls-3" points="31.13 83.232 31.883 79.118 33.232 82.766 31.13 83.232"/><polygon class="cls-3" points="30.771 82.332 34.212 79.955 32.587 83.489 30.771 82.332"/><polygon class="cls-3" points="31.153 81.441 35.267 82.194 31.619 83.543 31.153 81.441"/><polygon class="cls-3" points="32.053 81.082 34.43 84.523 30.896 82.898 32.053 81.082"/><polygon class="cls-3" points="32.944 81.464 32.191 85.578 30.842 81.929 32.944 81.464"/><polygon class="cls-3" points="33.303 82.365 29.861 84.742 31.487 81.208 33.303 82.365"/><polygon class="cls-3" points="32.921 83.256 28.807 82.503 32.455 81.153 32.921 83.256"/><polygon class="cls-3" points="111.816 64.063 109.296 57.527 114.076 61.5 111.816 64.063"/><polygon class="cls-3" points="110.463 63.172 113.303 56.769 113.874 62.959 110.463 63.172"/><polygon class="cls-3" points="110.136 61.586 116.672 59.066 112.699 63.847 110.136 61.586"/><polygon class="cls-3" points="111.027 60.233 117.431 63.073 111.241 63.644 111.027 60.233"/><polygon class="cls-3" points="112.614 59.907 115.134 66.443 110.353 62.469 112.614 59.907"/><polygon class="cls-3" points="113.966 60.797 111.127 67.2 110.556 61.01 113.966 60.797"/><polygon class="cls-3" points="114.292 62.382 107.756 64.902 111.729 60.121 114.292 62.382"/><polygon class="cls-3" points="113.402 63.735 106.998 60.895 113.188 60.324 113.402 63.735"/><polygon class="cls-3" points="52.096 51.35 50.261 48.694 52.989 49.948 52.096 51.35"/><polygon class="cls-3" points="51.408 51.055 51.989 47.879 53.031 50.695 51.408 51.055"/><polygon class="cls-3" points="51.131 50.36 53.787 48.525 52.532 51.253 51.131 50.36"/><polygon class="cls-3" points="51.426 49.672 54.602 50.253 51.786 51.295 51.426 49.672"/><polygon class="cls-3" points="52.12 49.395 53.954 52.051 51.227 50.797 52.12 49.395"/><polygon class="cls-3" points="52.808 49.69 52.227 52.866 51.186 50.05 52.808 49.69"/><polygon class="cls-3" points="53.085 50.385 50.429 52.219 51.684 49.492 53.085 50.385"/><polygon class="cls-3" points="52.791 51.073 49.615 50.492 52.431 49.45 52.791 51.073"/><g id="Red_cloth"><path id="_2" class="cls-1" d="M85.17,74.29c-2.757,2.994-12.675,13.372-24.24,17.467-4.181,1.48-6.271,2.22-8.802,2.643-5.262.879-9.701.267-13.791,2.75-.624.379-1.084.734-1.365.964-.909,1.001-2.189,2.497-3.53,4.393-2.534,3.585-4.392,7.341-3.85,7.563.372.152,1.632-1.464,6.085-4.812,0,0,0,0,0,0,1.467-2.798,2.207-3.348,2.612-3.286.408.063.441.739.894.786.574.059.863-.991,1.836-1.857,1.682-1.498,4.987-2.072,7.147-1.305.549.195.38.248.807.376,2.015.605,4.105-1.11,9.968-3.649,1.262-.547,1.477-.675,1.517-.637.225.217-6.255,4.769-10.873,5.429-1.012.145-1.52.35-2.024.321-1.504-.084-2.172-.994-3.059-.75-.611.167-.457.629-1.2.875-.857.284-1.482-.19-2,.125-.434.264-.077.646-.565,1.179-.342.374-1.01.723-1.694.714-.584-.008-.791-.27-1.271-.179-.318.061-.567.241-.83.555-1.015,1.21-.444,2.258-1.264,2.731-.409.236-.632.023-1.483.143-1.633.23-2.531,1.354-4.278,2.92-.328.294-.638.646-.938,1.104-1.129,1.726-1.463,3.336-1.208,5.923.706,7.18.635,5.197.635,5.197,1.668-1.581,2.385-3.007,2.73-4.036.724-2.161.039-3.272,1.224-5.465.323-.598.931-1.695,2.212-2.643,2.114-1.565,4.78-1.776,6.401-2,3.312-.459,7.15-2.378,14.827-6.215,2.373-1.186,5.363-2.782,8.684-4.822-.67.896-1.667,2.071-3.107,3.322,0,0-.36.313-.706.589-3.089,2.469-7.229,2.578-11.132,5.233-1.52,1.034-2.246,1.939-4.626,3.072-.921.438-1.496.628-2.387.964-3.705,1.397-10.311,3.888-10.026,6.501.02.181.043.151.071.357.369,2.786-3.883,3.588-3.883,6.215,0,1.661,1.059,3.59,1.059,3.59,3.559-5.28,5.06-6.591,5.719-6.59.094,0,.487.027.777-.161.428-.278.16-.722.531-1.075.353-.336.77-.098,1.375-.372.869-.393.592-1.149,1.624-2.197.267-.271.499-.437.852-.688,4.652-3.294,6.978-4.942,7.761-5.42,7.171-4.386,10.282-4.272,16.713-8.715,1.198-.828,2.285-1.702,3.55-2.804,2.135-1.859,3.774-3.664,6.284-6.429,3.468-3.82,6.061-7.162,7.837-9.591.584-1.205,1.52-3.134,2.683-5.519,2.219-4.55,3.004-6.123,2.754-6.215-.163-.06-.802.488-3.036,3.429Z"/><path id="_1" class="cls-1" d="M92.066,61.002c-.135,1.522-.425,3.72-1.113,6.322-1.224,4.63-3.104,8.246-5.382,12.037-6.948,11.559-10.435,17.334-17.133,21.931-5.627,3.863-9.245,4.383-13.203,7.715-1.028.865-3.45,3.075-6.724,3.429-.61.066-2.317.183-2.313.321.002.074.491.127.918.161.867.363,2.135.858,3.733,1.355.984.306,1.569.486,2.338.628.79.145,1.976.286,4.519.087,1.51-.118,3.411-.275,5.931-.891,3.053-.746,6.002-1.475,8.096-3.483,1.159-1.111,1.851-2.42,1.93-2.572.551-1.059.722-1.906.777-2.143.688-2.96,5.743-7.51,9.908-12.68,1.64-2.036,2.921-3.989,5.483-7.894,2.467-3.76,3.701-5.641,4.307-7.18.717-1.821,2.326-6.089.847-11.312-.732-2.585-1.985-4.574-2.918-5.833Z"/></g></svg>